# xmcd
#
# Track frame offsets: 
#        150
#        12472
#        26270
#        38891
#        51919
#        62113
#        78323
#        90988
#        105285
#        116424
#        127753
#        146018
#
# Disc length: 2167 seconds
#
# Revision: 0
# Processed by: cddbd v1.5.2PL0 Copyright (c) Steve Scherf et al.
# Submitted via: ExactAudioCopy v0.99pb3
#
DISCID=8c08750c
DTITLE=Daughterboy Jao - Simple Matters
DYEAR=2005
DGENRE=EMI
TTITLE0=One Last Time
TTITLE1=Better For You and Me
TTITLE2=Simple Matters
TTITLE3=Thrills
TTITLE4=Tell Me More
TTITLE5=Cures and Curses
TTITLE6=Troublemaker
TTITLE7=Everywhere You Run
TTITLE8=Where Do We Go From Here?
TTITLE9=Evil Is Known As 123
TTITLE10=Now You Will Sleep
TTITLE11=Satisfied
EXTD=
EXTT0=
EXTT1=
EXTT2=
EXTT3=
EXTT4=
EXTT5=
EXTT6=
EXTT7=
EXTT8=
EXTT9=
EXTT10=
EXTT11=
PLAYORDER=
